<svg id="Capa_1" enable-background="new 0 0 512 512" height="512" viewBox="0 0 512 512" width="512" xmlns="http://www.w3.org/2000/svg"><g><path d="m481.059 77.662-70.772-70.77c-4.445-4.444-10.354-6.892-16.64-6.892h-297.97c-12.975 0-23.532 10.557-23.532 23.532v232.984h-16.548c-17.396 0-31.548 14.153-31.548 31.548v144.29c0 17.396 14.152 31.549 31.548 31.549h248.5c12.976 0 23.532-10.557 23.532-23.532v-112.225c0-12.976-10.557-23.533-23.532-23.533h-248.5c-9.125 0-16.548-7.423-16.548-16.548s7.423-16.548 16.548-16.548h16.548v8.535c0 4.142 3.358 7.5 7.5 7.5s7.5-3.358 7.5-7.5v-256.52c0-4.705 3.828-8.532 8.532-8.532h289.097v72.661c0 8.556 6.96 15.517 15.516 15.517h72.661v385.29c0 4.705-3.828 8.532-8.532 8.532h-368.742c-4.705 0-8.532-3.827-8.532-8.532 0-4.142-3.358-7.5-7.5-7.5s-7.5 3.358-7.5 7.5c0 12.976 10.557 23.532 23.532 23.532h368.742c12.976 0 23.532-10.557 23.532-23.532v-394.166c.001-6.285-2.447-12.195-6.892-16.64zm-425.462 241.951h248.5c4.705 0 8.532 3.828 8.532 8.533v112.226c0 4.705-3.828 8.532-8.532 8.532h-248.5c-9.125 0-16.548-7.424-16.548-16.549v-117.44c4.813 2.979 10.483 4.698 16.548 4.698zm344.177-231.952v-70.068l70.587 70.585h-70.071c-.284 0-.516-.232-.516-.517z"/><path d="m150.565 422.454c1.313.925 2.82 1.369 4.313 1.369 2.357 0 4.677-1.108 6.138-3.182l18.057-25.632 18.029 25.628c1.46 2.076 3.782 3.186 6.141 3.186 1.491 0 2.997-.443 4.309-1.366 3.388-2.384 4.202-7.062 1.819-10.45l-21.121-30.024 17.943-25.471c2.385-3.386 1.574-8.065-1.812-10.45-3.387-2.386-8.065-1.574-10.451 1.812l-14.848 21.078-14.824-21.073c-2.383-3.388-7.062-4.202-10.45-1.819s-4.202 7.062-1.819 10.449l17.917 25.469-21.152 30.025c-2.386 3.387-1.575 8.065 1.811 10.451z"/><path d="m91.098 359.693h10.136v56.629c0 4.143 3.358 7.5 7.5 7.5s7.5-3.357 7.5-7.5v-56.629h10.28c4.142 0 7.5-3.357 7.5-7.5 0-4.142-3.358-7.5-7.5-7.5h-35.416c-4.142 0-7.5 3.358-7.5 7.5 0 4.143 3.358 7.5 7.5 7.5z"/><path d="m231.607 359.693h10.136v56.629c0 4.143 3.358 7.5 7.5 7.5s7.5-3.357 7.5-7.5v-56.629h10.279c4.142 0 7.5-3.357 7.5-7.5 0-4.142-3.358-7.5-7.5-7.5h-35.416c-4.142 0-7.5 3.358-7.5 7.5.001 4.143 3.359 7.5 7.501 7.5z"/><path d="m191.871 263.5h176.354c4.142 0 7.5-3.358 7.5-7.5s-3.358-7.5-7.5-7.5h-176.354c-4.142 0-7.5 3.358-7.5 7.5s3.358 7.5 7.5 7.5z"/><path d="m191.871 223.419h176.354c4.142 0 7.5-3.358 7.5-7.5s-3.358-7.5-7.5-7.5h-176.354c-4.142 0-7.5 3.358-7.5 7.5s3.358 7.5 7.5 7.5z"/><path d="m191.871 183.339h176.354c4.142 0 7.5-3.358 7.5-7.5 0-4.143-3.358-7.5-7.5-7.5h-176.354c-4.142 0-7.5 3.357-7.5 7.5 0 4.141 3.358 7.5 7.5 7.5z"/><path d="m191.871 143.258h176.354c4.142 0 7.5-3.357 7.5-7.5 0-4.142-3.358-7.5-7.5-7.5h-176.354c-4.142 0-7.5 3.358-7.5 7.5s3.358 7.5 7.5 7.5z"/></g></svg>